<?xml version="1.0" encoding="iso-8859-1"?>
<!-- Uploaded to: SVG Repo, www.svgrepo.com, Generator: SVG Repo Mixer Tools -->
<svg fill="#000000" height="800px" width="800px" version="1.1" id="Layer_1" xmlns="http://www.w3.org/2000/svg" xmlns:xlink="http://www.w3.org/1999/xlink" 
	 viewBox="0 0 512 512" xml:space="preserve">
<g>
	<g>
		<path d="M288.846,236.944H185.779c-4.442,0-8.043,3.601-8.043,8.043s3.601,8.043,8.043,8.043h76.853
			c-5.931,9.105-9.523,21.398-9.523,35.121c0,13.724,3.591,26.015,9.522,35.12H115.642c-10.473,0-19.659-16.411-19.659-35.12
			c0-18.709,9.186-35.121,19.659-35.121h43.327c4.442,0,8.043-3.601,8.043-8.043s-3.601-8.043-8.043-8.043h-43.327
			c-20.043,0-35.745,22.493-35.745,51.207c0,28.715,15.701,51.206,35.745,51.206h165.164v3.013c0,6.517-5.302,11.819-11.819,11.819
			h-58.839c-15.387,0-27.905,12.518-27.905,27.905v13.324h-7.418h-13.247c-4.442,0-8.043,3.601-8.043,8.043s3.601,8.043,8.043,8.043
			h5.204v92.452c0,4.442,3.601,8.043,8.043,8.043h34.787c4.442,0,8.043-3.601,8.043-8.043v-92.452h5.204
			c4.442,0,8.043-3.601,8.043-8.043s-3.601-8.043-8.043-8.043h-13.247h-11.283v-13.324c0-6.517,5.302-11.819,11.819-11.819h58.839
			c15.387,0,27.905-12.518,27.905-27.905v-4.28c16.042-5.1,27.698-25.204,27.698-49.94
			C324.59,259.437,308.889,236.944,288.846,236.944z M201.569,411.505v84.409h-18.701v-84.409H201.569z M296.892,319.95v-31.799
			c0-4.442-3.601-8.043-8.043-8.043s-8.043,3.601-8.043,8.043v31.802c-6.715-5.718-11.611-18.143-11.611-31.801
			c0-18.709,9.183-35.121,19.651-35.121c10.473,0,19.659,16.412,19.659,35.121C308.504,301.807,303.608,314.23,296.892,319.95z"/>
	</g>
</g>
<g>
	<g>
		<path d="M316.55,143.005c-4.442,0-8.043,3.601-8.043,8.043v79.464c0,4.442,3.601,8.043,8.043,8.043s8.043-3.601,8.043-8.043
			v-79.464C324.593,146.606,320.992,143.005,316.55,143.005z"/>
	</g>
</g>
<g>
	<g>
		<path d="M299.23,49.142c-5.115,0-9.277-4.162-9.277-9.277V25.363C289.952,11.378,278.575,0,264.59,0
			c-13.986,0-25.363,11.378-25.363,25.363v39.325c0,5.115-4.162,9.277-9.277,9.277s-9.277-4.162-9.277-9.277V47.884
			c0-13.985-11.378-25.363-25.363-25.363c-13.986,0-25.363,11.378-25.363,25.363v15.375c0,5.115-4.162,9.277-9.277,9.277
			c-13.985,0-25.363,11.378-25.363,25.363v124.568c0,4.442,3.601,8.043,8.043,8.043s8.043-3.601,8.043-8.043V97.9
			c0-5.116,4.162-9.277,9.277-9.277c13.985,0,25.363-11.378,25.363-25.363V47.884c0-5.115,4.162-9.277,9.277-9.277
			s9.277,4.162,9.277,9.277v16.805c0,13.985,11.378,25.363,25.363,25.363s25.363-11.378,25.363-25.363V25.363
			c0-5.115,4.162-9.277,9.277-9.277s9.277,4.162,9.277,9.277v14.501c0,13.985,11.378,25.363,25.363,25.363
			c5.115,0,9.277,4.162,9.277,9.277v49.733c0,4.442,3.601,8.043,8.043,8.043s8.043-3.601,8.043-8.043V74.505
			C324.593,60.52,313.215,49.142,299.23,49.142z"/>
	</g>
</g>
<g>
	<g>
		<path d="M287.501,106.186h-55.252c-4.442,0-8.043,3.601-8.043,8.043s3.601,8.043,8.043,8.043h55.252
			c4.442,0,8.043-3.601,8.043-8.043S291.943,106.186,287.501,106.186z"/>
	</g>
</g>
<g>
	<g>
		<path d="M205.439,106.186h-33.043c-4.442,0-8.043,3.601-8.043,8.043s3.601,8.043,8.043,8.043h33.043
			c4.442,0,8.043-3.601,8.043-8.043S209.881,106.186,205.439,106.186z"/>
	</g>
</g>
<g>
	<g>
		<path d="M287.501,138.876H172.396c-4.442,0-8.043,3.601-8.043,8.043s3.601,8.043,8.043,8.043h115.104
			c4.442,0,8.043-3.601,8.043-8.043S291.943,138.876,287.501,138.876z"/>
	</g>
</g>
<g>
	<g>
		<path d="M287.501,171.565h-10.211c-4.442,0-8.043,3.601-8.043,8.043s3.601,8.043,8.043,8.043h10.211
			c4.442,0,8.043-3.601,8.043-8.043S291.943,171.565,287.501,171.565z"/>
	</g>
</g>
<g>
	<g>
		<path d="M250.48,171.565h-78.084c-4.442,0-8.043,3.601-8.043,8.043s3.601,8.043,8.043,8.043h78.084
			c4.442,0,8.043-3.601,8.043-8.043S254.922,171.565,250.48,171.565z"/>
	</g>
</g>
<g>
	<g>
		<path d="M287.501,204.255H172.396c-4.442,0-8.043,3.601-8.043,8.043s3.601,8.043,8.043,8.043h115.104
			c4.442,0,8.043-3.601,8.043-8.043S291.943,204.255,287.501,204.255z"/>
	</g>
</g>
<g>
	<g>
		<path d="M424.061,46.846h-70.779c-4.442,0-8.043,3.601-8.043,8.043v334.59c0,4.442,3.601,8.043,8.043,8.043h70.779
			c4.442,0,8.043-3.601,8.043-8.043V54.889C432.104,50.447,428.503,46.846,424.061,46.846z M416.018,381.436h-54.693v-17.159h23.206
			c4.442,0,8.043-3.601,8.043-8.043s-3.601-8.043-8.043-8.043h-23.206v-17.292h23.206c4.442,0,8.043-3.601,8.043-8.043
			s-3.601-8.043-8.043-8.043h-23.206V297.52h23.206c4.442,0,8.043-3.601,8.043-8.043s-3.601-8.043-8.043-8.043h-23.206v-17.292
			h23.206c4.442,0,8.043-3.601,8.043-8.043s-3.601-8.043-8.043-8.043h-23.206v-17.293h23.206c4.442,0,8.043-3.601,8.043-8.043
			s-3.601-8.043-8.043-8.043h-23.206v-17.292h23.206c4.442,0,8.043-3.601,8.043-8.043s-3.601-8.043-8.043-8.043h-23.206v-17.293
			h23.206c4.442,0,8.043-3.601,8.043-8.043s-3.601-8.043-8.043-8.043h-23.206v-17.293h23.206c4.442,0,8.043-3.601,8.043-8.043
			s-3.601-8.043-8.043-8.043h-23.206V97.249h23.206c4.442,0,8.043-3.601,8.043-8.043s-3.601-8.043-8.043-8.043h-23.206V62.932
			h54.693V381.436z"/>
	</g>
</g>
</svg>